<svg viewBox="0 0 14 12" fill="none" xmlns="http://www.w3.org/2000/svg">
  <g transform="translate(8,6)">
    <g transform="rotate(-90)">
      <path d="
            m -2.5,-6.25
            c -10,15 15,15 5,0
            l -.5,2 
            l -1,-3 
            l -1,3 
            l -1,-3 
            l -1,3
            Z" 
        stroke="#044f31" stroke-width=".8" stroke-linejoin="round"
      />
      <!-- <circle cx="0" cy="0" r="4.75" fill="pink"/> -->
      <path d="
            m -2.75,-2.1
            l .2,-.4
            m 5.1,0
            l .2,.4
            m -1.45,.15
            l .15,.45
            m -2.9,0
            l .15,-.45
            m 1.3,.7
            l 0,-.5" 
        stroke="#044f31" stroke-width=".8" stroke-linecap="round"
      />
      <path d="
            m -2.75,2.1
            l .2,.4
            m 5.1,0
            l .2,-.4
            m -1.45,-.15
            l .15,-.45
            m -2.9,0
            l .15,.45
            m 1.3,-.7
            l 0,.5" 
        stroke="#044f31" stroke-width=".8" stroke-linecap="round"
      />
    </g>
  </g>
</svg>
